<svg width="385" height="87" viewBox="0 0 385 87" fill="none" xmlns="http://www.w3.org/2000/svg">
<g clip-path="url(#clip0_508_1636)">
<path d="M384.4 60.2697C384.4 61.9697 383.5 62.4697 382 62.4697H362.1C360.3 62.4697 359.7 61.6697 359.7 59.9697V26.5697C359.7 24.7697 360.4 24.0697 362.2 24.0697H382.1C383.6 24.0697 384.4 24.5697 384.5 26.1697C384.6 27.7697 383.7 28.4697 382.1 28.4697H365.2V40.6697H380.7C382.3 40.6697 383.4 41.1697 383.4 42.9697C383.4 44.7697 382.3 45.0697 380.8 45.0697H365.3V57.9997C366.1 57.9997 366.9 58.0997 367.7 58.0997H381.9C383.3 58.0797 384.3 58.4797 384.4 60.2697ZM215.5 46.4797C217.9 51.1797 220.3 55.6797 222.6 60.1797C223.6 62.1797 223.4 62.3697 221.2 62.5797C218.6 62.8797 217.2 61.8797 216.1 59.4797C214.6 55.8797 212.6 52.4797 211 48.9797C210.822 48.4169 210.458 47.9318 209.967 47.6044C209.476 47.2771 208.888 47.1272 208.3 47.1797C205.7 47.2697 203.1 47.1797 200.2 47.1797V59.5797C200.2 61.5797 199.6 62.4797 197.4 62.4797C195.4 62.4797 194.7 61.6797 194.8 59.6797C194.8 48.6797 194.9 37.6797 194.8 26.7697C194.8 24.7697 195.4 23.8697 197.6 23.8697C202 23.9697 206.4 23.8697 210.9 23.9697C217.2 24.1697 221.8 27.5697 222.9 32.6697C224.1 38.7697 221.8 43.1797 215.5 46.4797ZM215.6 30.4797C215.3 30.2697 215 29.9797 214.7 29.7697C214.074 29.3414 213.353 29.0704 212.6 28.9797C208.6 28.2697 204.5 28.3797 200.4 28.0697V42.8697H208.1C209.237 42.9012 210.374 42.8376 211.5 42.6797C212.75 42.5117 213.947 42.0639 215 41.3697C215.327 41.1345 215.628 40.8664 215.9 40.5697C216.54 39.8458 217.017 38.9934 217.3 38.0697C217.4 37.8697 217.4 37.6697 217.5 37.4697C217.615 37.0452 217.682 36.6092 217.7 36.1697C217.782 35.1258 217.637 34.0765 217.275 33.0942C216.912 32.1118 216.341 31.2198 215.6 30.4797ZM308.5 24.0797C306.3 24.0797 305.6 24.8797 305.6 27.0797C305.7 34.0797 305.6 41.0797 305.6 48.1797C305.6 51.0797 305 53.7697 302.8 55.6797C298.9 58.9797 294.4 58.9797 289.9 57.2697C285.8 55.6797 284.5 52.1797 284.6 48.0797V27.2797C284.6 25.1797 284 24.1797 281.7 24.2797C279.4 24.3797 279 25.2797 279 27.2797C279.1 34.4797 279 41.5797 279 48.7797C279 55.2797 282.5 60.0797 288.7 61.7797C291.401 62.5226 294.203 62.8265 297 62.6797C305.6 61.9797 311.4 56.5797 311 47.6797C310.9 44.6797 311 41.5797 311 38.4797C311 34.7797 310.9 30.9797 311 27.2797C311.2 25.0797 310.7 24.0797 308.5 24.0797ZM348.6 24.0797C346.2 24.0797 345.9 25.3797 345.9 27.2797V52.7797C345.718 52.8906 345.513 52.959 345.3 52.9797C344.8 52.2797 344.2 51.5797 343.7 50.8797C337.9 42.7797 332.1 34.6797 326.3 26.4797C325.9 25.8797 325.5 24.8797 324.9 24.7797C323.473 24.3626 321.985 24.1935 320.5 24.2797C320.1 24.2797 319.3 25.4797 319.3 26.1797C319.2 37.5797 319.3 49.0797 319.2 60.4797C319.2 61.8797 319.9 62.4797 321.3 62.5797C324.1 62.6797 324.6 62.2697 324.6 59.3797V36.0797C324.6 35.2797 324.7 34.5797 324.7 33.7797C325.474 34.119 326.134 34.6746 326.6 35.3797C332.5 43.5797 338.4 51.8797 344.3 60.1797C344.7 60.7697 345 61.5797 345.5 61.7697C347.025 62.2193 348.611 62.4218 350.2 62.3697C350.6 62.3697 351.2 60.6797 351.2 59.6797C351.3 48.8697 351.2 37.9797 351.3 27.1797C351.5 25.0797 351 24.0797 348.6 24.0797ZM270.3 24.0797H246.7C245.1 24.0797 243.3 23.6797 243.3 26.2797C243.3 28.8797 245.2 28.5797 246.8 28.5797H255.7V59.3697C255.7 61.2697 255.9 62.6797 258.4 62.5697C260.9 62.4597 261.2 62.2697 261.2 59.2697V28.5797H270.2C271.8 28.5797 273.6 28.8797 273.6 26.3797C273.6 23.8797 272 24.0797 270.3 24.0797ZM234.2 24.0797C232 24.0797 231.5 24.9797 231.5 26.9797C231.6 37.8797 231.6 48.7797 231.5 59.6797C231.5 61.6797 232.1 62.5797 234.2 62.5797C236.5 62.5797 237.1 61.5797 237 59.5797C236.9 54.2697 237 48.8797 237 43.5797C237 38.0797 236.9 32.5797 237 27.0797C237.1 24.9997 236.5 23.9997 234.2 24.0797ZM182.9 24.0797C180.7 24.0797 180.2 25.0797 180.2 26.9797C180.3 37.8797 180.3 48.7797 180.2 59.6797C180.2 61.6797 180.8 62.5797 182.9 62.5797C185.2 62.5797 185.8 61.5797 185.7 59.5797C185.6 54.1797 185.7 48.7697 185.7 43.3697C185.7 37.9697 185.6 32.5697 185.7 27.1697C185.8 24.9997 185.2 23.9997 182.9 24.0797ZM173.8 36.9997C173.5 42.7997 169.2 47.3997 162.9 47.9997C159.4 48.2997 155.7 48.1997 152.2 48.1997C151.8 48.1997 151.5 48.2897 150.9 48.2897C150.9 52.0997 150.8 55.7897 150.9 59.4897C151 62.8897 149.4 62.7897 146.8 62.3897C146.2 62.2897 145.5 60.7897 145.5 59.8897C145.4 52.4897 145.4 45.0897 145.4 37.6997V26.4797C145.4 25.1797 145.6 24.0697 147.1 24.0697C152.8 24.1697 158.6 23.8697 164.2 24.5697C170.6 25.5797 174.1 30.6797 173.8 36.9997ZM163.5 29.0997C159.5 28.3997 155.3 28.4997 151 28.1997V43.6997C154.7 43.6997 158 43.7897 161.3 43.6997C163.083 43.7139 164.801 43.0324 166.09 41.8C167.378 40.5676 168.135 38.8814 168.2 37.0997C168.7 33.1797 167 29.6797 163.5 29.0797V29.0997ZM133 42.2697C130.988 41.4197 128.916 40.721 126.8 40.1797C124.1 39.3697 121.3 38.7697 118.7 37.7697C116.7 37.0797 115.1 35.6797 115.1 33.2697C115.068 32.1635 115.364 31.0725 115.951 30.1346C116.539 29.1966 117.391 28.4537 118.4 27.9997C120.097 27.1212 121.977 26.6545 123.888 26.6371C125.799 26.6197 127.687 27.0522 129.4 27.8997C130.6 28.4997 132.2 29.4997 132.5 30.6997C133.5 33.8897 135.6 33.5997 138.8 33.0997C138 31.1997 137.6 29.3997 136.6 27.9997C131.9 21.2997 119.4 20.2997 113.2 26.0997C108 30.8997 109 38.5997 115.4 41.6997C117.506 42.598 119.68 43.3303 121.9 43.8897C124.9 44.7897 128 45.3897 130.8 46.6997C135.1 48.6997 135.2 53.6997 131.3 56.3897C125.6 60.2897 117.1 58.0897 113.9 51.9897C112.9 50.0897 111.1 51.0897 109.6 51.1897C109.407 51.5183 109.281 51.882 109.23 52.2596C109.178 52.6373 109.202 53.0214 109.3 53.3897C110.2 55.1897 111 57.1897 112.5 58.5897C117.5 63.3897 127.6 64.0897 133.9 60.1897C135.64 59.2814 137.067 57.8705 137.994 56.1406C138.921 54.4106 139.307 52.4416 139.1 50.4897C138.8 46.3697 136.5 43.7697 133 42.2697Z" fill="black"/>
<path d="M40.3001 86.1799C32.2065 85.6587 24.4237 82.8671 17.8441 78.1252C11.2645 73.3833 6.15449 66.883 3.10006 59.3699C0.960314 54.245 -0.0951729 48.7327 5.59255e-05 43.1799C-0.0914817 37.6307 0.963889 32.1223 3.10006 26.9999C5.9307 20.0054 10.5376 13.8706 16.4655 9.20199C22.3934 4.53336 29.437 1.49247 36.9001 0.379889C41.0517 -0.120119 45.2484 -0.120119 49.4001 0.379889C56.1316 1.35274 62.5373 3.9049 68.0936 7.82771C73.6498 11.7505 78.1987 16.9326 81.3685 22.9503C84.5383 28.968 86.2389 35.6504 86.3313 42.4513C86.4237 49.2521 84.9052 55.9783 81.9001 62.0799C79.7241 66.6391 76.7042 70.7448 73.0001 74.1799C68.699 78.3659 63.5637 81.5981 57.9293 83.6658C52.2949 85.7335 46.2878 86.5901 40.3001 86.1799ZM47.8001 81.0799C53.1642 80.3834 58.3334 78.615 63.0001 75.8799C69.2043 72.0589 74.2245 66.5886 77.5001 60.0799C79.9034 55.1956 81.2293 49.852 81.3881 44.4108C81.5468 38.9696 80.5346 33.5578 78.4201 28.5417C76.3056 23.5257 73.1381 19.0225 69.132 15.337C65.1259 11.6514 60.3747 8.86965 55.2001 7.17989C50.5001 5.57989 48.9001 5.37989 43.2001 5.37989C37.5001 5.37989 35.9001 5.57989 31.3001 7.17989C23.7926 9.65433 17.2483 14.4171 12.5853 20.8C7.92234 27.1829 5.37477 34.8655 5.30006 42.7699C5.30006 44.5799 5.40006 45.0799 5.60006 44.9699C5.80006 44.8599 10.4001 42.2699 15.9001 39.0699L25.9001 33.2699L26.0001 26.0699C26.1001 18.1699 26.1001 18.1699 27.5001 17.0699C27.9201 16.744 28.4057 16.5127 28.9235 16.3918C29.4413 16.271 29.9791 16.2635 30.5001 16.3699C31.0001 16.4699 37.6001 20.0699 52.1001 28.4699C63.5001 35.0699 73.1001 40.6699 73.3001 40.8699C73.6883 41.2992 73.9788 41.8076 74.1515 42.3601C74.3241 42.9125 74.3748 43.4959 74.3001 44.0699C74.0001 46.0699 74.7001 45.5699 52.0001 58.6699C31.3001 70.5699 31.0001 70.7699 29.8001 70.7699C29.0997 70.8062 28.4042 70.636 27.7998 70.2804C27.1953 69.9249 26.7086 69.3996 26.4001 68.7699C26.0001 67.8699 26.0001 67.5699 26.0001 61.0699C26.0001 56.2699 25.9001 54.2699 25.8001 54.2699C25.7001 54.2699 11.3001 62.3699 10.9001 62.7699C10.8001 62.8699 11.3001 63.7699 12.2001 65.0699C14.5981 68.3004 17.3859 71.2225 20.5001 73.7699C26.0274 77.878 32.5528 80.4329 39.4001 81.1699C42.1988 81.3334 45.0055 81.3034 47.8001 81.0799ZM50.7001 53.7699C60.4001 48.1799 68.2001 43.5799 68.2001 43.5799C68.2001 43.5799 56.3001 36.5799 56.1001 36.5799C55.9001 36.5799 50.3001 39.8799 43.3001 43.8799L30.7001 51.1799V65.3699L31.9001 64.6799C32.6001 64.2699 41.0001 59.3699 50.7001 53.7699ZM17.6001 54.6799L25.9001 49.9999L26.0001 43.4999C26.0001 39.8999 26.0001 36.9999 25.9001 36.9999C25.8001 36.9999 6.00006 48.1799 5.80006 48.2699C5.60006 48.3599 6.40006 52.2699 7.20006 54.2699C7.72034 56.0065 8.42432 57.6826 9.30006 59.2699C9.20006 59.3699 13.0001 57.2699 17.6001 54.6799ZM42.4001 40.2699C47.7001 37.1799 52.2001 34.4699 52.4001 34.3699C52.6001 34.2699 51.4001 33.3699 47.2001 30.9699C44.2001 29.2699 41.6001 27.7699 41.4001 27.7699C39.5101 28.6995 37.6739 29.7344 35.9001 30.8699L30.7001 33.8699V47.1799L31.7001 46.5799C32.2001 46.2699 37.0001 43.3699 42.4001 40.2699ZM34.7001 27.7699C35.7846 27.1862 36.8212 26.5174 37.8001 25.7699C37.8001 25.6799 35.3001 24.0699 31.5001 21.7699L30.7001 21.2699V30.2699L31.2001 29.9799C31.4001 29.7699 33.0001 28.8799 34.7001 27.7699Z" fill="black"/>
</g>
<defs>
<clipPath id="clip0_508_1636">
<rect width="384.5" height="86.25" fill="white"/>
</clipPath>
</defs>
</svg>
