<svg width="80" height="80" viewBox="0 0 80 80" fill="none" xmlns="http://www.w3.org/2000/svg">
<path d="M33.7791 52.7393H46.4913C46.4913 61.1623 39.6535 68.0001 31.2305 68.0001V55.2877C32.6602 55.2567 33.7791 54.138 33.7791 52.7393Z" fill="#F9FAFB"/>
<path d="M31.2608 55.2567V67.9691C22.8378 67.9691 16 61.131 16 52.708H28.7121C28.7121 54.1378 29.8311 55.2567 31.2608 55.2567Z" fill="#F9FAFB"/>
<path d="M46.5213 27.2838H33.8091C33.8091 18.8608 40.6469 12.023 49.0699 12.023V24.735C47.6402 24.7661 46.5213 25.8851 46.5213 27.2838Z" fill="#F9FAFB"/>
<path d="M49.0396 24.7662V12.0539C57.4625 12.0539 64.3004 18.8916 64.3004 27.3146H51.5882C51.5882 25.8849 50.4693 24.7662 49.0396 24.7662Z" fill="#F9FAFB"/>
<path d="M46.4915 52.7393H33.7793V40.027H46.4915V52.7393Z" fill="#F9FAFB"/>
<path d="M46.4915 40.027H33.7793V27.3147H46.4915V40.027Z" fill="#F9FAFB"/>
<path d="M64.3005 52.7393H51.5884V40.027H64.3005V52.7393Z" fill="#F9FAFB"/>
<path d="M64.3005 65.4513H51.5884V52.7393H64.3005V65.4513Z" fill="#F9FAFB"/>
<path d="M64.3005 40.027H51.5884V27.3147H64.3005V40.027Z" fill="#F9FAFB"/>
<path d="M28.7121 52.7393H16V40.027H28.7121V52.7393Z" fill="#F9FAFB"/>
<path d="M28.7121 40.027H16V27.3147H28.7121V40.027Z" fill="#F9FAFB"/>
<path d="M28.7121 27.2838H16V14.5714H28.7121V27.2838Z" fill="#F9FAFB"/>
</svg>
