<svg width="199" height="30" viewBox="0 0 199 30" fill="none" xmlns="http://www.w3.org/2000/svg">
<path d="M0.8 29C0.666667 29 0.6 28.9333 0.6 28.8L0.68 1.32C0.68 1.21333 0.733333 1.16 0.84 1.16H13.64C13.7733 1.16 13.84 1.21333 13.84 1.32V5.84C13.84 5.94666 13.7867 6 13.68 6H5.48V12.2H13.68C13.7867 12.2 13.84 12.2667 13.84 12.4L13.88 16.92C13.88 17.0267 13.8133 17.08 13.68 17.08H5.48V28.8C5.48 28.9333 5.41333 29 5.28 29H0.8ZM21.9866 29C21.8799 29 21.8266 28.9333 21.8266 28.8L21.9066 1.32C21.9066 1.21333 21.9599 1.16 22.0666 1.16H30.1466C31.5866 1.16 32.9066 1.52 34.1066 2.24C35.3332 2.93333 36.3066 3.88 37.0266 5.08C37.7466 6.25333 38.1066 7.58667 38.1066 9.08C38.1066 10.0667 37.9599 10.96 37.6666 11.76C37.3732 12.5333 37.0266 13.2 36.6266 13.76C36.2266 14.2933 35.8666 14.6933 35.5466 14.96C36.9866 16.56 37.7066 18.44 37.7066 20.6L37.7466 28.8C37.7466 28.9333 37.6799 29 37.5466 29H33.0266C32.9199 29 32.8666 28.96 32.8666 28.88V20.6C32.8666 19.64 32.5199 18.8133 31.8266 18.12C31.1599 17.4 30.3332 17.04 29.3466 17.04H26.7066L26.6666 28.8C26.6666 28.9333 26.6132 29 26.5066 29H21.9866ZM26.7066 12.24H30.1466C30.9732 12.24 31.7066 11.9333 32.3466 11.32C32.9866 10.7067 33.3066 9.96 33.3066 9.08C33.3066 8.22667 32.9866 7.49333 32.3466 6.88C31.7332 6.26667 30.9999 5.96 30.1466 5.96H26.7066V12.24ZM43.7634 28.8L48.7234 1.32C48.7501 1.21333 48.8168 1.16 48.9234 1.16H54.7234C54.8301 1.16 54.8968 1.21333 54.9234 1.32L59.6834 28.8C59.7101 28.9333 59.6568 29 59.5234 29H55.0834C54.9768 29 54.9101 28.9333 54.8834 28.8L54.4434 25.88H49.0034L48.5634 28.8C48.5368 28.9333 48.4701 29 48.3634 29H43.9234C43.8168 29 43.7634 28.9333 43.7634 28.8ZM49.8034 21.6H53.6434L52.0034 10.36L51.7634 8.88L51.6034 10.36L49.8034 21.6ZM72.6944 29.4C71.2277 29.4 69.8944 29.04 68.6944 28.32C67.521 27.5733 66.5877 26.5867 65.8944 25.36C65.201 24.1333 64.8544 22.76 64.8544 21.24L64.8944 8.76C64.8944 7.29333 65.2277 5.96 65.8944 4.76C66.5877 3.53333 67.521 2.56 68.6944 1.84C69.8944 1.09333 71.2277 0.719999 72.6944 0.719999C74.161 0.719999 75.481 1.08 76.6544 1.8C77.8277 2.52 78.761 3.49333 79.4544 4.72C80.1477 5.92 80.4944 7.26667 80.4944 8.76V10.6C80.4944 10.7067 80.441 10.76 80.3344 10.76H75.8544C75.7477 10.76 75.6944 10.7067 75.6944 10.6V8.76C75.6944 7.88 75.401 7.12 74.8144 6.48C74.2544 5.84 73.5477 5.52 72.6944 5.52C71.7344 5.52 71.001 5.85333 70.4944 6.52C69.9877 7.16 69.7344 7.90666 69.7344 8.76V21.24C69.7344 22.2267 70.0144 23.0267 70.5744 23.64C71.161 24.2533 71.8677 24.56 72.6944 24.56C73.5477 24.56 74.2544 24.2267 74.8144 23.56C75.401 22.8667 75.6944 22.0933 75.6944 21.24V19.4C75.6944 19.2933 75.7477 19.24 75.8544 19.24H80.3744C80.481 19.24 80.5344 19.2933 80.5344 19.4V21.24C80.5344 22.76 80.1744 24.1333 79.4544 25.36C78.761 26.5867 77.8277 27.5733 76.6544 28.32C75.481 29.04 74.161 29.4 72.6944 29.4ZM90.9516 29C90.8449 29 90.7916 28.9333 90.7916 28.8V6H85.5916C85.4582 6 85.3916 5.93333 85.3916 5.8L85.4316 1.32C85.4316 1.21333 85.4849 1.16 85.5916 1.16H100.792C100.925 1.16 100.992 1.21333 100.992 1.32V5.8C100.992 5.93333 100.938 6 100.832 6H95.5916L95.6316 28.8C95.6316 28.9333 95.5782 29 95.4716 29H90.9516ZM107.167 29C107.034 29 106.967 28.9333 106.967 28.8L107.007 1.32C107.007 1.21333 107.061 1.16 107.167 1.16H111.647C111.754 1.16 111.807 1.21333 111.807 1.32L111.847 28.8C111.847 28.9333 111.794 29 111.687 29H107.167ZM126.766 29.4C125.326 29.4 124.006 29.04 122.806 28.32C121.632 27.5733 120.686 26.6 119.966 25.4C119.246 24.1733 118.886 22.8267 118.886 21.36L118.926 8.68C118.926 7.21333 119.272 5.88 119.966 4.68C120.686 3.48 121.646 2.52 122.846 1.8C124.046 1.08 125.352 0.719999 126.766 0.719999C128.206 0.719999 129.512 1.08 130.686 1.8C131.859 2.52 132.792 3.48 133.486 4.68C134.206 5.88 134.566 7.21333 134.566 8.68L134.606 21.36C134.606 22.8267 134.246 24.1733 133.526 25.4C132.832 26.6 131.886 27.5733 130.686 28.32C129.512 29.04 128.206 29.4 126.766 29.4ZM126.766 24.56C127.566 24.56 128.259 24.24 128.846 23.6C129.459 22.9333 129.766 22.1867 129.766 21.36L129.726 8.68C129.726 7.8 129.446 7.05333 128.886 6.44C128.326 5.82667 127.619 5.52 126.766 5.52C125.939 5.52 125.232 5.82667 124.646 6.44C124.059 7.02667 123.766 7.77333 123.766 8.68V21.36C123.766 22.24 124.059 23 124.646 23.64C125.232 24.2533 125.939 24.56 126.766 24.56ZM142.007 29C141.794 29 141.687 28.9067 141.687 28.72L141.647 1.48C141.647 1.26667 141.754 1.16 141.967 1.16H145.567L152.327 16.92L152.127 1.48C152.127 1.26667 152.247 1.16 152.487 1.16H156.447C156.607 1.16 156.687 1.26667 156.687 1.48L156.727 28.76C156.727 28.92 156.66 29 156.527 29H153.007L146.087 14.28L146.367 28.68C146.367 28.8933 146.247 29 146.007 29H142.007ZM162.842 28.8L167.802 1.32C167.828 1.21333 167.895 1.16 168.002 1.16H173.802C173.908 1.16 173.975 1.21333 174.002 1.32L178.762 28.8C178.788 28.9333 178.735 29 178.602 29H174.162C174.055 29 173.988 28.9333 173.962 28.8L173.522 25.88H168.082L167.642 28.8C167.615 28.9333 167.548 29 167.442 29H163.002C162.895 29 162.842 28.9333 162.842 28.8ZM168.882 21.6H172.722L171.082 10.36L170.842 8.88L170.682 10.36L168.882 21.6ZM185.432 29C185.325 29 185.272 28.9333 185.272 28.8L185.312 1.36C185.312 1.22667 185.379 1.16 185.512 1.16H189.952C190.085 1.16 190.152 1.22667 190.152 1.36L190.112 24.08H198.352C198.485 24.08 198.552 24.1467 198.552 24.28V28.8C198.552 28.9333 198.485 29 198.352 29H185.432Z" fill="black"/>
</svg>
