<svg width="80" height="80" viewBox="0 0 80 80" fill="none" xmlns="http://www.w3.org/2000/svg">
<g clip-path="url(#clip0_410_739)">
<path d="M46.627 22.4V62.48C46.627 67.44 45.107 71.36 42.067 74.24C39.0803 77.12 35.1337 78.56 30.227 78.56C25.3203 78.56 21.347 77.12 18.307 74.24C15.3203 71.36 13.827 67.44 13.827 62.48H23.027C23.0803 64.9333 23.6937 66.88 24.867 68.32C26.0937 69.76 27.8803 70.48 30.227 70.48C32.5737 70.48 34.3603 69.76 35.587 68.32C36.8137 66.8267 37.427 64.88 37.427 62.48V22.4H46.627Z" fill="black"/>
<path d="M16.1649 25.8858C16.1912 20.9899 17.3428 16.604 19.6197 12.7282C21.9445 8.85261 25.0567 5.84529 28.9563 3.70621C32.9041 1.51939 37.206 0.438492 41.8619 0.463512C47.1898 0.492142 51.9107 1.83753 56.0244 4.49967C60.1864 7.11408 63.1905 10.8263 65.0367 15.6363L55.1729 15.5833C53.8911 12.9363 52.1017 10.9587 49.8047 9.65033C47.5077 8.34197 44.8472 7.67966 41.8232 7.66341C38.5113 7.64561 35.5553 8.37374 32.9554 9.84779C30.3554 11.3218 28.3039 13.4468 26.801 16.2228C25.3461 18.999 24.6087 22.2351 24.5888 25.9311C24.5689 29.627 25.2715 32.8708 26.6965 35.6625C28.1696 38.4545 30.1979 40.6254 32.7816 42.1753C35.3656 43.6772 38.3136 44.4371 41.6255 44.4549C44.6495 44.4711 47.3169 43.8375 49.6278 42.5539C51.9388 41.2703 53.7493 39.312 55.0595 36.679L64.9233 36.732C63.0256 41.5218 59.9818 45.2015 55.7919 47.7711C51.65 50.3408 46.9151 51.6114 41.5872 51.5828C36.8833 51.5575 32.5931 50.4544 28.7168 48.2736C24.8407 46.0447 21.7611 42.9801 19.4781 39.0798C17.243 35.1797 16.1386 30.7817 16.1649 25.8858Z" fill="#636363"/>
</g>
<defs>
<clipPath id="clip0_410_739">
<rect width="80" height="80" fill="white"/>
</clipPath>
</defs>
</svg>
