<svg width="1584" height="350" viewBox="0 0 1584 350" fill="none" xmlns="http://www.w3.org/2000/svg">
<g clip-path="url(#clip0_588_6320)">
<rect width="350" height="350" rx="50" fill="#303030"/>
<mask id="mask0_588_6320" style="mask-type:alpha" maskUnits="userSpaceOnUse" x="207" y="221" width="29" height="29">
<rect x="207.92" y="221.703" width="27.5" height="27.5" fill="#70D26A"/>
</mask>
<g mask="url(#mask0_588_6320)">
</g>
<mask id="mask1_588_6320" style="mask-type:alpha" maskUnits="userSpaceOnUse" x="37" y="38" width="276" height="276">
<circle cx="175.455" cy="176.454" r="137.5" transform="rotate(45 175.455 176.454)" fill="#C4C4C4"/>
</mask>
<g mask="url(#mask1_588_6320)">
<rect x="165.834" y="-70.1162" width="18.3333" height="501.692" fill="#FBFBF9"/>
<rect x="211.206" y="-101.785" width="18.3333" height="223.53" fill="#FBFBF9"/>
<rect x="216.484" y="232.584" width="18.3333" height="70.5833" transform="rotate(45 216.484 232.584)" fill="#FBFBF9"/>
<path fill-rule="evenodd" clip-rule="evenodd" d="M229.539 183.323H211.205L211.205 249.438H225.558L229.539 245.458L229.539 183.323Z" fill="#FBFBF9"/>
<path fill-rule="evenodd" clip-rule="evenodd" d="M313.063 107.486L300.1 94.522L212.117 182.504L211.437 184.758L223.614 196.935L313.063 107.486Z" fill="#FBFBF9"/>
<rect x="216.484" y="232.584" width="18.3333" height="75.1667" transform="rotate(45 216.484 232.584)" fill="#FBFBF9"/>
<rect x="86.8398" y="183.802" width="144" height="18" transform="rotate(45 86.8398 183.802)" fill="#FBFBF9"/>
<rect x="-73.2529" y="-80.4873" width="297.917" height="18.3333" transform="rotate(45 -73.2529 -80.4873)" fill="#FBFBF9"/>
<rect x="-31.7686" y="-103.821" width="297.917" height="18.3333" transform="rotate(45 -31.7686 -103.821)" fill="#FBFBF9"/>
<rect x="132.869" y="164.525" width="67.8333" height="18.3333" transform="rotate(45 132.869 164.525)" fill="#FBFBF9"/>
<rect x="-53.8076" y="107.485" width="308" height="18.3333" transform="rotate(45 -53.8076 107.485)" fill="#FBFBF9"/>
<path fill-rule="evenodd" clip-rule="evenodd" d="M229.539 183.323H211.205L211.205 249.438H225.558L229.539 245.458L229.539 183.323Z" fill="#FBFBF9"/>
<path fill-rule="evenodd" clip-rule="evenodd" d="M277.413 78.3171L264.449 65.3535L170.092 159.711L169.305 162.071L181.482 174.248L277.413 78.3171Z" fill="#FBFBF9"/>
<rect x="253.431" y="260.456" width="18.3333" height="102.667" transform="rotate(45 253.431 260.456)" fill="#FBFBF9"/>
<path fill-rule="evenodd" clip-rule="evenodd" d="M266.532 211.242H248.199L248.199 277.357H262.551L266.532 273.376L266.532 211.242Z" fill="#FBFBF9"/>
<path fill-rule="evenodd" clip-rule="evenodd" d="M300.1 94.522L313.063 107.486L219.077 201.472L211.437 193.832L211.437 183.184L300.1 94.522Z" fill="#FBFBF9"/>
<path fill-rule="evenodd" clip-rule="evenodd" d="M337.046 122.394L350.01 135.357L256.023 229.343L248.384 221.704L248.384 211.056L337.046 122.394Z" fill="#FBFBF9"/>
<path fill-rule="evenodd" clip-rule="evenodd" d="M134.651 127.416L119.812 127.416L119.812 177.396L126.433 184.017L138.146 172.305L138.146 130.911L134.651 127.416Z" fill="#FBFBF9"/>
<rect x="165.001" y="39" width="20" height="311" fill="#FBFBF9"/>
<rect x="165.001" y="39" width="20" height="311" fill="#FBFBF9"/>
<rect x="-125.292" y="-63.6855" width="299.75" height="18.3333" transform="rotate(45 -125.292 -63.6855)" fill="#FBFBF9"/>
<path fill-rule="evenodd" clip-rule="evenodd" d="M72.5977 195.014V134.203L92.5977 154.203L92.5977 199.711H77.2947L72.5977 195.014Z" fill="#FBFBF9"/>
</g>
<rect x="165.001" y="64" width="20" height="301" fill="#FBFBF9"/>
</g>
<path d="M526.865 90.0639H497.739V110.523C497.739 122.574 491.359 131.822 476.935 131.822H470V160.688H494.965V229.351C494.965 254.855 510.499 269.989 535.464 269.989C547.115 269.989 553.217 267.746 555.159 266.906V240.001C553.772 240.281 548.502 241.122 544.063 241.122C532.136 241.122 526.865 236.077 526.865 224.026V160.688H554.882V131.822H526.865V90.0639Z" fill="#303030"/>
<path d="M586.292 188.154C586.847 170.778 596.555 157.325 614.308 157.325C634.558 157.325 642.047 170.778 642.047 187.593V268.307H674.225V181.988C674.225 152.001 658.136 127.898 624.849 127.898C610.702 127.898 595.446 132.943 586.292 144.994V65.4013H554.114V268.307H586.292V188.154Z" fill="#303030"/>
<path d="M756.116 243.364C736.421 243.364 718.391 228.23 718.391 199.924C718.391 171.619 736.421 157.045 756.116 157.045C776.088 157.045 793.841 171.619 793.841 199.924C793.841 228.511 776.088 243.364 756.116 243.364ZM756.116 127.618C715.894 127.618 686.213 158.166 686.213 199.924C686.213 241.963 715.894 272.511 756.116 272.511C796.615 272.511 826.296 241.963 826.296 199.924C826.296 158.166 796.615 127.618 756.116 127.618Z" fill="#303030"/>
<path d="M925.095 253.173C925.095 258.778 925.649 265.224 926.204 268.307H956.994C956.44 263.262 955.608 254.574 955.608 243.364V131.822H923.43V212.536C923.43 230.472 913.722 243.084 895.136 243.084C875.719 243.084 867.952 228.791 867.952 211.975V131.822H835.775V217.861C835.775 248.129 854.637 272.231 886.815 272.231C902.626 272.231 918.437 265.504 925.095 253.173Z" fill="#303030"/>
<path d="M967.319 275.874C970.925 303.339 995.89 325.76 1031.67 325.76C1082.44 325.76 1101.02 291.849 1101.02 255.415V131.822H1069.95V149.198C1064.13 137.988 1051.09 129.3 1030.01 129.3C992.839 129.3 967.596 159.287 967.596 195.721C967.596 234.116 993.948 262.141 1030.01 262.141C1049.7 262.141 1063.3 252.893 1069.12 242.243V256.536C1069.12 284.282 1056.36 297.454 1030.84 297.454C1012.26 297.454 999.219 284.842 996.999 268.027L967.319 275.874ZM1035.28 234.396C1014.2 234.396 1000.05 219.542 1000.05 195.721C1000.05 172.459 1014.75 157.325 1035.28 157.325C1055.25 157.325 1069.95 172.459 1069.95 195.721C1069.95 219.262 1055.81 234.396 1035.28 234.396Z" fill="#303030"/>
<path d="M1153.13 188.154C1153.69 170.778 1163.4 157.325 1181.15 157.325C1201.4 157.325 1208.89 170.778 1208.89 187.593V268.307H1241.07V181.988C1241.07 152.001 1224.98 127.898 1191.69 127.898C1177.54 127.898 1162.29 132.943 1153.13 144.994V65.4013H1120.96V268.307H1153.13V188.154Z" fill="#303030"/>
<path d="M1301.6 90.0639H1272.47V110.523C1272.47 122.574 1266.09 131.822 1251.67 131.822H1244.73V160.688H1269.7V229.351C1269.7 254.855 1285.23 269.989 1310.2 269.989C1321.85 269.989 1327.95 267.746 1329.89 266.906V240.001C1328.51 240.281 1323.24 241.122 1318.8 241.122C1306.87 241.122 1301.6 236.077 1301.6 224.026V160.688H1329.62V131.822H1301.6V90.0639Z" fill="#303030"/>
<path d="M1405.41 93.1467C1411.51 93.1467 1415.12 93.9874 1417.06 94.548V66.8026C1414.84 65.6815 1408.18 64 1400.14 64C1372.4 64 1352.98 82.4969 1352.98 113.045V131.822H1329.4V160.128H1352.98V268.307H1385.44V160.128H1416.78V131.822H1385.44V113.886C1385.44 97.0703 1396.81 93.1467 1405.41 93.1467Z" fill="#303030"/>
<path d="M1504.62 253.173C1504.62 258.778 1505.18 265.224 1505.73 268.307H1536.53C1535.97 263.262 1535.14 254.574 1535.14 243.364V131.822H1502.96V212.536C1502.96 230.472 1493.25 243.084 1474.67 243.084C1455.25 243.084 1447.48 228.791 1447.48 211.975V131.822H1415.31V217.861C1415.31 248.129 1434.17 272.231 1466.34 272.231C1482.16 272.231 1497.97 265.504 1504.62 253.173Z" fill="#303030"/>
<path d="M1584 268.307V65.4013H1551.82V268.307H1584Z" fill="#303030"/>
<defs>
<clipPath id="clip0_588_6320">
<rect width="350" height="350" rx="50" fill="white"/>
</clipPath>
</defs>
</svg>
